<svg xmlns="http://www.w3.org/2000/svg" viewBox="0 0 24 24" fill="none" stroke="currentColor" stroke-width="1.8" stroke-linecap="round" stroke-linejoin="round"><circle cx="12" cy="12" r="3"/><path d="M19.4 15a1.7 1.7 0 0 0 .34 1.88l.06.06-2.12 2.12-.06-.06a1.7 1.7 0 0 0-1.88-.34 1.7 1.7 0 0 0-1.04 1.56V20.3h-3v-.08a1.7 1.7 0 0 0-1.04-1.56 1.7 1.7 0 0 0-1.88.34l-.06.06-2.12-2.12.06-.06A1.7 1.7 0 0 0 7 15a1.7 1.7 0 0 0-1.56-1.04h-.08v-3h.08A1.7 1.7 0 0 0 7 9.92a1.7 1.7 0 0 0-.34-1.88L6.6 7.98 8.72 5.86l.06.06A1.7 1.7 0 0 0 10.66 6.26 1.7 1.7 0 0 0 11.7 4.7v-.08h3v.08a1.7 1.7 0 0 0 1.04 1.56 1.7 1.7 0 0 0 1.88-.34l.06-.06 2.12 2.12-.06.06a1.7 1.7 0 0 0-.34 1.88 1.7 1.7 0 0 0 1.56 1.04h.08v3h-.08A1.7 1.7 0 0 0 19.4 15Z"/></svg>
